<svg width="35" height="35" viewBox="0 0 35 35" fill="none" xmlns="http://www.w3.org/2000/svg">
<path d="M19.6875 8.02083C21.2917 8.02083 22.6042 6.70833 22.6042 5.10417C22.6042 3.5 21.2917 2.1875 19.6875 2.1875C18.0833 2.1875 16.7708 3.5 16.7708 5.10417C16.7708 6.70833 18.0833 8.02083 19.6875 8.02083ZM26.6146 13.125C26.0167 13.125 25.5208 13.6208 25.5208 14.2187V15.7208C23.7271 15.1812 22.2833 14.0146 21.4375 12.5417L19.9792 10.2083C19.3813 9.26042 18.3604 8.75 17.2958 8.75C16.1583 8.75 14.9771 9.47917 14.7 10.85L10.5729 31.7333C10.3833 32.6667 11.0979 33.5417 12.0604 33.5417C12.775 33.5417 13.3875 33.0458 13.5479 32.3604L15.8958 21.875L18.9583 24.7917V32.0833C18.9583 32.8854 19.6146 33.5417 20.4167 33.5417C21.2188 33.5417 21.875 32.8854 21.875 32.0833V23.8583C21.875 23.0562 21.5542 22.2979 20.9708 21.7437L18.8125 19.6875L19.6875 15.3125C21.1458 16.9896 23.2021 18.2437 25.5208 18.725V32.4479C25.5208 33.0458 26.0167 33.5417 26.6146 33.5417C27.2125 33.5417 27.7083 33.0458 27.7083 32.4479V14.2187C27.7083 13.6208 27.2125 13.125 26.6146 13.125ZM10.8354 19.1479L7.74376 18.55C7.36486 18.4762 7.03073 18.2551 6.81472 17.9352C6.59871 17.6153 6.51849 17.2228 6.59168 16.8437L7.70001 11.1125C7.84823 10.3551 8.29061 9.6873 8.93023 9.25541C9.56986 8.82353 10.3546 8.66276 11.1125 8.80833L12.8042 9.14375L10.8354 19.1479Z" fill="black"/>
</svg>
