<svg width="35" height="35" viewBox="0 0 35 35" fill="none" xmlns="http://www.w3.org/2000/svg">
<path d="M34.1119 25.8904L2.0172 34.9657C1.65261 35.0571 1.28803 34.9429 0.923448 34.6233C0.558865 34.3036 0.29682 33.8699 0.137315 33.3219C-0.0221902 32.774 -0.0335834 32.2717 0.103135 31.8151C0.239854 31.3584 0.501898 31.0845 0.889268 30.9931L32.984 21.9178C33.3486 21.8265 33.7132 21.9406 34.0778 22.2603C34.4423 22.5799 34.7044 23.0137 34.8639 23.5616C35.0234 24.1096 35.0348 24.6119 34.8981 25.0685C34.7613 25.5251 34.4993 25.7991 34.1119 25.8904ZM28.4381 20.6164C28.4153 20.8676 28.3697 21.1758 28.3014 21.5411L21.7389 23.3904C21.83 22.774 21.8756 22.2717 21.8756 21.8836C21.8756 18.3219 20.0527 15.3995 16.4068 13.1164C16.4068 13.1621 16.3727 13.3676 16.3043 13.7329C16.236 14.0982 16.179 14.3836 16.1334 14.589C16.0878 14.7945 16.0081 15.1142 15.8942 15.5479C15.7802 15.9817 15.6663 16.3527 15.5524 16.661C15.4384 16.9692 15.3017 17.3459 15.1422 17.7911C14.9827 18.2363 14.8004 18.6301 14.5953 18.9726C14.3902 19.3151 14.1624 19.6747 13.9117 20.0514C13.6611 20.4281 13.3763 20.7705 13.0572 21.0788C12.7382 21.387 12.3964 21.6552 12.0318 21.8836C11.6673 22.1119 11.371 22.5114 11.1432 23.0822L8.067 22.226C8.04422 22.226 8.02713 22.2317 8.01573 22.2431L7.99864 22.2603L8.03282 22.226L6.63146 21.8151C6.7226 21.0388 7.09858 19.9715 7.75939 18.613C8.42019 17.2546 8.7506 16.153 8.7506 15.3082C8.7506 14.2352 8.67654 13.1678 8.52843 12.1062C8.38032 11.0445 8.20372 10.1427 7.99864 9.40068C7.79357 8.65867 7.58279 7.99087 7.36632 7.39726C7.14985 6.80365 6.96186 6.35845 6.80236 6.06164L6.59728 5.61644C8.80756 6.55251 11.0862 7.87671 13.4332 9.58904C13.456 9.49771 13.5187 9.31507 13.6212 9.04109C13.7237 8.76712 13.7921 8.59018 13.8263 8.51027C13.8605 8.43036 13.9117 8.27625 13.9801 8.04794C14.0485 7.81963 14.094 7.6484 14.1168 7.53425C14.1396 7.42009 14.1624 7.27169 14.1852 7.08904C14.208 6.90639 14.2193 6.72374 14.2193 6.54109C14.2193 5.49087 14.0371 4.41781 13.6725 3.32192C13.3079 2.22603 12.9433 1.39269 12.5787 0.821918L12.066 0C12.2939 0.0913242 12.6129 0.234018 13.0231 0.428082C13.4332 0.622146 14.225 1.05023 15.3985 1.71233C16.5721 2.37443 17.6772 3.07078 18.714 3.80137C19.7508 4.53196 20.8787 5.46804 22.0978 6.60959C23.3168 7.75114 24.3251 8.91552 25.1227 10.1027L25.1569 10.137C25.7037 9.42922 26.4329 8.77854 27.3444 8.18493C28.2558 7.59132 29.0306 7.16895 29.6686 6.91781L30.5914 6.54109C30.5231 6.63242 30.4148 6.75799 30.2667 6.91781C30.1186 7.07762 29.8566 7.42009 29.4806 7.9452C29.1046 8.47032 28.7685 9.00685 28.4723 9.55479C28.1761 10.1027 27.8969 10.7934 27.6349 11.6267C27.3728 12.46 27.219 13.2763 27.1735 14.0753C28.0849 16.4726 28.5065 18.653 28.4381 20.6164ZM7.99864 22.2603L7.79357 22.637C7.79357 22.5913 7.86193 22.4657 7.99864 22.2603ZM6.87071 27.6027L0.889268 25.8904C0.501898 25.7991 0.239854 25.5251 0.103135 25.0685C-0.0335834 24.6119 -0.0221902 24.1096 0.137315 23.5616C0.29682 23.0137 0.558865 22.5799 0.923448 22.2603C1.28803 21.9406 1.65261 21.8265 2.0172 21.9178L14.4586 25.4452L6.87071 27.6027ZM34.1119 30.9931C34.4993 31.0845 34.7613 31.3584 34.8981 31.8151C35.0348 32.2717 35.0234 32.774 34.8639 33.3219C34.7044 33.8699 34.4423 34.3036 34.0778 34.6233C33.7132 34.9429 33.3486 35.0571 32.984 34.9657L19.9957 31.3014L27.5836 29.1438L34.1119 30.9931Z" fill="black"/>
</svg>
