<svg width="35" height="35" viewBox="0 0 35 35" fill="none" xmlns="http://www.w3.org/2000/svg">
<g clip-path="url(#clip0)">
<path fill-rule="evenodd" clip-rule="evenodd" d="M32.9844 30.6753C27.4235 27.941 22.4597 14.8182 20.0365 8.44159L22.5174 3.44534C22.6012 3.28117 22.6265 3.0904 22.5887 2.90799C22.5509 2.72559 22.4525 2.56378 22.3115 2.45222C22.0274 2.24659 21.6609 2.35816 21.488 2.70159L19.4271 6.85128C18.9638 5.66566 18.655 4.94597 18.5294 4.94597C18.4059 4.94597 18.1033 5.64378 17.6524 6.79878L15.5709 2.60753C15.398 2.26409 15.0274 2.15253 14.7474 2.35816C14.6064 2.46972 14.508 2.63153 14.4701 2.81393C14.4323 2.99633 14.4577 3.18711 14.5415 3.35128L17.043 8.38691C14.6321 14.7285 9.67443 27.8666 4.11766 30.6535V26.2938H2.05884V32.8125H11.6653C17.0224 28.6169 18.5294 15.1507 18.5294 15.1507C18.5294 15.1507 20.4709 28.6169 25.3935 32.8125L35 32.806V26.2938H32.9844V30.6753Z" fill="black"/>
</g>
<defs>
<clipPath id="clip0">
<rect width="35" height="35" fill="white"/>
</clipPath>
</defs>
</svg>
