<svg width="32" height="35" viewBox="0 0 32 35" fill="none" xmlns="http://www.w3.org/2000/svg">
<path d="M21.3755 8.85424L20.3061 6.75364L22.8133 6.87906L21.6352 4.92604L23.9269 4.96921L22.6853 3.23962L25.0667 3.45895L23.7445 1.66227L25.7851 1.01943C19.5029 -2.83643 16.1957 4.97796 15.8267 12.2183C13.9152 4.88579 8.27733 -2.64217 2.60587 3.9227L4.81813 3.75412L3.9456 6.00755L6.28053 4.87063L5.472 7.02722L7.76267 6.09505L7.28533 7.7214C4.11947 6.61364 1.21813 7.44139 0 11.9728L1.89547 10.8609L2.0672 13.3104L3.66667 11.2564L3.85387 13.5874L5.50027 11.7418L5.87467 14.1982L7.62453 12.118L8.21227 14.7862L9.79093 12.979L10.1733 14.547C5.77387 15.3036 2.52427 17.9012 5.33653 22.8625L5.73387 20.9737L7.2944 22.383L6.96213 20.0998L8.4624 21.4257L8.28 19.2406L9.96 20.5257L9.696 18.1299L11.6208 19.4126L11.4261 17.2945L11.9915 17.6527C12.2027 18.3813 12.6299 18.9827 13.2192 19.3467C13.3883 19.4517 13.5701 19.5305 13.7573 19.5923L16.3131 35H17.1259L17.0336 34.4447L20.4811 33.7447L16.8037 33.061L16.3909 30.5701L19.7845 29.8795L16.1648 29.2092L15.7408 26.6536L18.8747 26.016L15.5323 25.3959L15.0949 22.7592L18.0773 22.1526L14.8965 21.5622L14.5904 19.7177C15.0125 19.7069 15.4278 19.5988 15.8091 19.4004C16.0171 19.6372 16.248 19.8391 16.504 19.9849L15.3483 20.22L18.568 20.8179L19.3141 23.5287L16.5867 24.084L19.6219 24.6463L20.3755 27.3851L17.6107 27.9475L20.6875 28.5185L21.4309 31.2194L18.5211 31.8115L21.7595 32.4123L22.472 35H23.3072L19.0976 19.7049C19.5039 19.3053 19.7542 18.7502 19.7968 18.1544C19.8142 17.8714 19.7897 17.5871 19.7243 17.3126L20.8704 16.5245L20.5904 18.5306L22.4048 17.2286L22.0496 19.5025L23.64 18.2081L23.3701 20.2772L24.7995 18.9541L24.3883 21.1236L25.8757 19.7201L26.1477 21.4817C29.0331 16.5082 25.9136 14.2239 21.7408 13.8284L22.208 12.062L23.7861 13.7298L24.3749 11.2663L26.1248 13.1861L26.4987 10.9198L28.1445 12.6232L28.3333 10.4718L29.9312 12.3665L30.1029 10.1061L32 11.1333C30.3573 5.49713 25.6619 6.06122 21.3755 8.85424ZM9.27413 8.64249C8.8724 8.41193 8.46033 8.20361 8.03947 8.01832L9.56107 7.34864L9.27413 8.64249ZM11.0416 9.80858C10.8384 9.65691 10.6347 9.51107 10.4304 9.37049L11.1909 9.05257L11.0416 9.80858V9.80858ZM11.4304 14.3831L11.7909 13.9824L11.9296 14.3429C11.7631 14.3542 11.5967 14.3676 11.4304 14.3831ZM20.3515 13.7759C20.2715 13.6166 20.1755 13.4667 20.0683 13.3244L20.2085 12.9883L20.9787 13.7782C20.7717 13.77 20.5611 13.7753 20.3515 13.7759V13.7759ZM19.7552 10.0302L19.2341 8.94349L21.1552 9.00007C20.6761 9.32281 20.2091 9.66648 19.7552 10.0302" fill="black"/>
</svg>
