<svg width="35" height="35" viewBox="0 0 35 35" fill="none" xmlns="http://www.w3.org/2000/svg">
<path d="M18.41 0.48733C18.3101 0.337533 18.1748 0.21471 18.016 0.129761C17.8573 0.0448127 17.68 0.000366211 17.5 0.000366211C17.3199 0.000366211 17.1427 0.0448127 16.9839 0.129761C16.8252 0.21471 16.6899 0.337533 16.59 0.48733L10.0275 10.3311C9.91789 10.4958 9.85501 10.6871 9.84556 10.8848C9.8361 11.0824 9.88043 11.2789 9.97381 11.4533C10.0672 11.6277 10.2061 11.7735 10.3758 11.8752C10.5455 11.9769 10.7397 12.0307 10.9375 12.0308H11.1519L6.72874 19.1073C6.62527 19.2729 6.56799 19.4631 6.56287 19.6583C6.55774 19.8535 6.60496 20.0465 6.6996 20.2172C6.79425 20.388 6.93288 20.5303 7.1011 20.6294C7.26932 20.7285 7.461 20.7808 7.65624 20.7808H8.07406L4.49093 27.947C4.40737 28.1138 4.36784 28.2991 4.3761 28.4854C4.38436 28.6718 4.44013 28.8529 4.53812 29.0116C4.6361 29.1703 4.77305 29.3013 4.93593 29.3922C5.09881 29.4831 5.28223 29.5308 5.46874 29.5308H15.3125V34.9995H19.6875V29.5308H29.5312C29.7178 29.5308 29.9012 29.4831 30.0641 29.3922C30.2269 29.3013 30.3639 29.1703 30.4619 29.0116C30.5599 28.8529 30.6156 28.6718 30.6239 28.4854C30.6321 28.2991 30.5926 28.1138 30.5091 27.947L26.9281 20.7808H27.3459C27.5412 20.7808 27.7329 20.7285 27.9011 20.6294C28.0693 20.5303 28.2079 20.388 28.3026 20.2172C28.3972 20.0465 28.4444 19.8535 28.4393 19.6583C28.4342 19.4631 28.3769 19.2729 28.2734 19.1073L23.8481 12.0308H24.0625C24.2603 12.0307 24.4544 11.9769 24.6242 11.8752C24.7939 11.7735 24.9328 11.6277 25.0262 11.4533C25.1196 11.2789 25.1639 11.0824 25.1544 10.8848C25.145 10.6871 25.0821 10.4958 24.9725 10.3311L18.41 0.48733ZM14.0809 10.4076C13.9865 10.2368 13.848 10.0944 13.6799 9.99516C13.5118 9.89592 13.3202 9.84348 13.125 9.84327H12.9806L17.5 3.06421L22.0194 9.84327H21.875C21.6798 9.84327 21.4881 9.89553 21.3199 9.99462C21.1516 10.0937 21.013 10.236 20.9184 10.4068C20.8237 10.5776 20.7765 10.7706 20.7816 10.9657C20.7867 11.1609 20.844 11.3511 20.9475 11.5167L25.3706 18.5933H25.1562C24.9697 18.5933 24.7863 18.641 24.6234 18.7318C24.4605 18.8227 24.3236 18.9537 24.2256 19.1124C24.1276 19.2711 24.0719 19.4523 24.0636 19.6386C24.0553 19.8249 24.0949 20.0103 24.1784 20.177L27.7594 27.3433H7.23843L10.8216 20.177C10.9051 20.0103 10.9446 19.8249 10.9364 19.6386C10.9281 19.4523 10.8724 19.2711 10.7744 19.1124C10.6764 18.9537 10.5394 18.8227 10.3766 18.7318C10.2137 18.641 10.0303 18.5933 9.84374 18.5933H9.62937L14.0525 11.5167C14.1557 11.3512 14.2128 11.1611 14.2178 10.966C14.2228 10.771 14.1755 10.5782 14.0809 10.4076Z" fill="black"/>
</svg>
