<svg width="35" height="35" viewBox="0 0 35 35" fill="none" xmlns="http://www.w3.org/2000/svg">
<path d="M17.5 32.0834V13.125M9.51198 10.2084C9.88021 6.11992 13.316 2.91669 17.5 2.91669C21.684 2.91669 25.1198 6.11992 25.488 10.2084H25.5208C27.2613 10.2084 28.9305 10.8998 30.1612 12.1305C31.3919 13.3612 32.0833 15.0304 32.0833 16.7709C32.0833 18.5113 31.3919 20.1805 30.1612 21.4112C28.9305 22.642 27.2613 23.3334 25.5208 23.3334H9.47917C7.73868 23.3334 6.06949 22.642 4.83878 21.4112C3.60807 20.1805 2.91667 18.5113 2.91667 16.7709C2.91667 15.0304 3.60807 13.3612 4.83878 12.1305C6.06949 10.8998 7.73868 10.2084 9.47917 10.2084H9.51198ZM17.5 20.4167L21.1458 16.7709L17.5 20.4167ZM17.5 18.2292L13.125 13.8542L17.5 18.2292Z" stroke="black" stroke-width="4" stroke-linecap="round" stroke-linejoin="round"/>
</svg>
