<svg width="38" height="34" viewBox="0 0 38 34" fill="none" xmlns="http://www.w3.org/2000/svg">
<path d="M37.1447 34H0.886258C-0.103397 33.0629 -0.264216 32.2778 0.403801 31.6447L15.2115 0.569832C15.6074 0.189944 16.0775 0 16.6218 0C17.1661 0 17.6362 0.189944 18.032 0.569832L24.638 14.3978L25.8998 10.295C26.2709 9.91508 26.7348 9.72514 27.2915 9.72514C27.8482 9.72514 28.3244 9.91508 28.7203 10.295L37.5901 31.6447C38.2581 32.2778 38.1097 33.0629 37.1447 34ZM16.6218 4.86257L11.9085 14.5497C11.9085 14.727 11.89 14.9803 11.8529 15.3095C11.8158 15.6387 11.8034 15.8793 11.8158 16.0313C11.8281 16.1832 11.8652 16.3542 11.9271 16.5441C11.9889 16.7341 12.1127 16.8607 12.2982 16.924C12.4838 16.9873 12.7497 17.0063 13.0961 16.981C13.6157 16.9557 14.0796 16.8101 14.4878 16.5441C14.8961 16.2782 15.2177 15.9996 15.4527 15.7084C15.6878 15.4171 16.0094 15.1512 16.4177 14.9106C16.8259 14.67 17.2898 14.5497 17.8094 14.5497C18.2547 14.5497 18.6753 14.7207 19.0712 15.0626C19.467 15.4045 19.8196 15.8223 20.1289 16.3162C20.4381 16.8101 20.7598 17.2976 21.0938 17.7788C21.4278 18.26 21.8236 18.6588 22.2814 18.9754C22.7391 19.292 23.2277 19.4376 23.7473 19.4123L16.6218 4.86257Z" fill="black"/>
</svg>
