<svg width="27" height="36" viewBox="0 0 27 36" fill="none" xmlns="http://www.w3.org/2000/svg">
<path d="M12.9369 9.93762C12.9369 9.93762 11.0863 14.2059 10.1953 19.6144C9.30426 25.0229 9.50989 32.5168 9.50989 32.5168" stroke="black" stroke-width="4" stroke-linecap="round" stroke-linejoin="round"/>
<path d="M21.1295 17.4145C21.3667 17.6 21.7416 17.7298 22.1083 17.8202C22.7471 17.9766 23.3365 17.4605 23.3201 16.6936C23.2892 15.2631 22.8149 12.9237 20.4016 11.0375C18.1227 9.25781 15.8601 9.23281 14.4331 9.48924C13.6196 9.6344 13.2954 10.6811 13.7628 11.4786C14.1795 12.1907 14.6648 12.9092 14.9931 13.0471C15.6785 13.3334 16.503 12.5778 17.1041 13.0471C17.7046 13.5156 17.5257 14.5994 18.1268 15.0687C18.7272 15.5381 19.5065 14.9236 20.1076 15.3929C20.7073 15.8622 20.5291 16.9452 21.1295 17.4145V17.4145Z" stroke="black" stroke-width="4" stroke-linecap="round" stroke-linejoin="round"/>
<path d="M11.5661 12.3568C12.1542 12.1262 12.5181 11.3682 12.7217 10.761C12.8903 10.2602 12.7395 9.7062 12.3447 9.43202C11.4571 8.81432 9.56198 7.96921 6.60515 8.97963C3.6819 9.97795 2.91082 12.2504 2.71411 13.5882C2.6911 13.7343 2.69414 13.8844 2.72303 14.029C2.75193 14.1737 2.80604 14.3096 2.88195 14.4284C2.95786 14.5471 3.05391 14.646 3.16401 14.7187C3.2741 14.7915 3.39584 14.8365 3.52152 14.851C3.90534 14.901 4.32755 14.8784 4.57978 14.6269C5.1329 14.0745 5.28232 13.3511 5.90055 13.156C6.5181 12.9616 7.05135 13.8479 7.6689 13.6527C8.28713 13.4584 8.37212 12.377 8.98967 12.1818C9.6079 11.9875 10.5387 12.76 11.5668 12.3568H11.5661Z" stroke="black" stroke-width="4" stroke-linecap="round" stroke-linejoin="round"/>
<path d="M16.3639 3.48642C14.6504 4.29283 12.9369 8.32483 12.9369 9.93763L21.8471 5.09923C20.9013 3.17112 18.0774 2.68002 16.3639 3.48642Z" stroke="black" stroke-width="4" stroke-linecap="round" stroke-linejoin="round"/>
<path d="M11.5661 2.68004C14.3077 3.82674 13.8828 8.00953 12.9369 9.93764L4.71207 3.42354C5.39747 1.87364 8.82449 1.53333 11.5661 2.68004Z" stroke="black" stroke-width="4" stroke-linecap="round" stroke-linejoin="round"/>
<path d="M15.6785 26.8721C21.3564 26.8721 24.5888 28.3155 24.5888 30.0977C24.5888 31.8798 19.9856 33.3233 14.3077 33.3233C8.62984 33.3233 4.02667 31.8798 4.02667 30.0977C4.02667 29.6622 4.30083 29.2485 4.79775 28.8695" stroke="black" stroke-width="4" stroke-linecap="round"/>
</svg>
