<svg width="35" height="35" viewBox="0 0 35 35" fill="none" xmlns="http://www.w3.org/2000/svg">
<path d="M18.41 0.48733C18.3101 0.337533 18.1748 0.21471 18.0161 0.129761C17.8573 0.0448127 17.6801 0.000366211 17.5 0.000366211C17.32 0.000366211 17.1427 0.0448127 16.984 0.129761C16.8252 0.21471 16.6899 0.337533 16.59 0.48733L10.0275 10.3311C9.91791 10.4958 9.85503 10.6871 9.84558 10.8848C9.83613 11.0824 9.88045 11.2789 9.97383 11.4533C10.0672 11.6277 10.2062 11.7735 10.3759 11.8752C10.5456 11.9769 10.7397 12.0307 10.9375 12.0308H11.1519L6.72877 19.1073C6.62529 19.2729 6.56802 19.4631 6.56289 19.6583C6.55777 19.8535 6.60498 20.0465 6.69962 20.2172C6.79427 20.388 6.9329 20.5303 7.10112 20.6294C7.26935 20.7285 7.46103 20.7808 7.65627 20.7808H8.07408L4.49095 27.947C4.4074 28.1138 4.36787 28.2991 4.37613 28.4854C4.38439 28.6718 4.44016 28.8529 4.53814 29.0116C4.63613 29.1703 4.77307 29.3013 4.93595 29.3922C5.09884 29.4831 5.28225 29.5308 5.46877 29.5308H15.3125V34.9995H19.6875V29.5308H29.5313C29.7178 29.5308 29.9012 29.4831 30.0641 29.3922C30.227 29.3013 30.3639 29.1703 30.4619 29.0116C30.5599 28.8529 30.6156 28.6718 30.6239 28.4854C30.6322 28.2991 30.5926 28.1138 30.5091 27.947L26.9281 20.7808H27.346C27.5412 20.7808 27.7329 20.7285 27.9011 20.6294C28.0693 20.5303 28.208 20.388 28.3026 20.2172C28.3972 20.0465 28.4445 19.8535 28.4393 19.6583C28.4342 19.4631 28.3769 19.2729 28.2735 19.1073L23.8481 12.0308H24.0625C24.2604 12.0307 24.4545 11.9769 24.6242 11.8752C24.7939 11.7735 24.9328 11.6277 25.0262 11.4533C25.1196 11.2789 25.1639 11.0824 25.1545 10.8848C25.145 10.6871 25.0821 10.4958 24.9725 10.3311L18.41 0.48733ZM14.081 10.4076C13.9865 10.2368 13.848 10.0944 13.6799 9.99516C13.5118 9.89592 13.3202 9.84348 13.125 9.84327H12.9806L17.5 3.06421L22.0194 9.84327H21.875C21.6798 9.84327 21.4881 9.89553 21.3199 9.99462C21.1517 10.0937 21.013 10.236 20.9184 10.4068C20.8237 10.5776 20.7765 10.7706 20.7816 10.9657C20.7868 11.1609 20.844 11.3511 20.9475 11.5167L25.3706 18.5933H25.1563C24.9698 18.5933 24.7863 18.641 24.6235 18.7318C24.4606 18.8227 24.3236 18.9537 24.2256 19.1124C24.1277 19.2711 24.0719 19.4523 24.0636 19.6386C24.0554 19.8249 24.0949 20.0103 24.1785 20.177L27.7594 27.3433H7.23845L10.8216 20.177C10.9051 20.0103 10.9447 19.8249 10.9364 19.6386C10.9281 19.4523 10.8724 19.2711 10.7744 19.1124C10.6764 18.9537 10.5395 18.8227 10.3766 18.7318C10.2137 18.641 10.0303 18.5933 9.84377 18.5933H9.62939L14.0525 11.5167C14.1557 11.3512 14.2128 11.1611 14.2178 10.966C14.2228 10.771 14.1755 10.5782 14.081 10.4076Z" fill="black"/>
</svg>
