<svg width="35" height="35" viewBox="0 0 35 35" fill="none" xmlns="http://www.w3.org/2000/svg">
<path d="M17.5 13.125C19.8187 24.2229 14.5833 32.0834 14.5833 32.0834H18.9583C21.7 23.625 20.4167 17.6313 19.6875 14.5834L17.5 13.125ZM22.8375 10.4417C23.0854 10.7479 23.3333 11.0688 23.5229 11.4042C24.7112 13.2826 25.2634 15.4936 25.098 17.7102C24.9325 19.9268 24.0581 22.0313 22.6042 23.7125C23.2342 22.1851 23.4901 20.5293 23.3506 18.883C23.2111 17.2367 22.6802 15.6475 21.8021 14.2479C21.6854 14.0584 21.5542 13.8979 21.4375 13.7229C20.5989 12.5525 19.5263 11.5692 18.2875 10.8354C16.1876 11.5057 14.3551 12.8261 13.0549 14.6061C11.7547 16.386 11.054 18.5333 11.0542 20.7375C11.0542 21.8167 11.2146 22.8521 11.5062 23.8146C10.2418 22.0557 9.56317 19.9433 9.56666 17.7771C9.56666 14.35 11.2292 11.3167 13.7812 9.42085C11.6667 9.26044 9.42082 9.7271 7.46666 10.9375C6.56249 11.5354 5.77499 12.2209 5.10416 12.9938C5.90624 11.0542 7.29166 9.31877 9.18749 8.12294C11.375 6.7521 13.8542 6.30002 16.2458 6.65002C15.6479 5.83335 14.9187 5.06044 14.0437 4.37502C13.1979 3.76252 12.2792 3.26669 11.3167 2.91669C13.4167 2.97502 15.5167 3.64585 17.3104 5.0021C18.2292 5.68752 18.9583 6.51877 19.5417 7.39377C19.6875 7.39377 19.8187 7.37919 19.9646 7.37919C24.6312 7.37919 28.5833 10.4563 29.8958 14.7C29.0753 13.5431 28.025 12.5678 26.8105 11.8351C25.5961 11.1024 24.2436 10.6281 22.8375 10.4417Z" fill="black"/>
</svg>
