<svg width="35" height="35" viewBox="0 0 35 35" fill="none" xmlns="http://www.w3.org/2000/svg">
<path d="M18.9583 22.2512V31.1471C18.9583 31.5338 18.8047 31.9048 18.5312 32.1783C18.2577 32.4518 17.8868 32.6054 17.5 32.6054C17.1132 32.6054 16.7423 32.4518 16.4688 32.1783C16.1953 31.9048 16.0416 31.5338 16.0416 31.1471V22.2512C14.3999 22.5886 12.692 22.35 11.2055 21.5757C9.71899 20.8014 8.54461 19.5387 7.88004 18C7.21546 16.4613 7.10126 14.7406 7.55666 13.1276C8.01206 11.5146 9.00925 10.1077 10.3804 9.14373C10.7415 7.52484 11.6436 6.07737 12.9379 5.04002C14.2321 4.00266 15.8413 3.43738 17.5 3.43738C19.1587 3.43738 20.7678 4.00266 22.0621 5.04002C23.3563 6.07737 24.2584 7.52484 24.6196 9.14373C25.9907 10.1077 26.9879 11.5146 27.4433 13.1276C27.8987 14.7406 27.7845 16.4613 27.1199 18C26.4553 19.5387 25.281 20.8014 23.7945 21.5757C22.308 22.35 20.6001 22.5886 18.9583 22.2512Z" fill="black"/>
</svg>
