<svg width="35" height="38" viewBox="0 0 35 38" fill="none" xmlns="http://www.w3.org/2000/svg">
<path d="M26.25 15.8333C27.4038 15.8333 28.5316 15.4619 29.4909 14.7659C30.4501 14.07 31.1978 13.0809 31.6393 11.9236C32.0808 10.7664 32.1964 9.49294 31.9713 8.26439C31.7462 7.03584 31.1906 5.90735 30.3748 5.02162C29.559 4.13589 28.5196 3.5327 27.3881 3.28832C26.2565 3.04395 25.0836 3.16937 24.0177 3.64873C22.9518 4.12808 22.0408 4.93984 21.3998 5.98135C20.7588 7.02286 20.4167 8.24735 20.4167 9.49996C20.4167 11.1797 21.0313 12.7906 22.1252 13.9783C23.2192 15.166 24.7029 15.8333 26.25 15.8333ZM26.25 6.3333C26.8269 6.3333 27.3908 6.51902 27.8705 6.86698C28.3501 7.21493 28.7239 7.7095 28.9447 8.28813C29.1654 8.86676 29.2232 9.50348 29.1107 10.1177C28.9981 10.732 28.7203 11.2963 28.3124 11.7391C27.9045 12.182 27.3848 12.4836 26.8191 12.6058C26.2533 12.728 25.6668 12.6653 25.1339 12.4256C24.6009 12.1859 24.1454 11.78 23.8249 11.2593C23.5044 10.7385 23.3334 10.1263 23.3334 9.49996C23.3334 8.66011 23.6407 7.85466 24.1876 7.26079C24.7346 6.66693 25.4765 6.3333 26.25 6.3333V6.3333ZM24.573 19.7441C24.4422 19.515 24.2597 19.3259 24.0427 19.1948C23.8258 19.0637 23.5816 18.9949 23.3334 18.9949C23.0851 18.9949 22.8409 19.0637 22.624 19.1948C22.4071 19.3259 22.2246 19.515 22.0938 19.7441L20.6355 22.325L15.8375 13.4583C15.7084 13.222 15.5249 13.0263 15.305 12.8904C15.0851 12.7544 14.8364 12.6829 14.5834 12.6829C14.3303 12.6829 14.0816 12.7544 13.8617 12.8904C13.6419 13.0263 13.4583 13.222 13.3292 13.4583L3.12087 32.4583C2.99324 32.6983 2.92587 32.9705 2.92548 33.2476C2.92509 33.5247 2.9917 33.7971 3.11866 34.0375C3.24562 34.2779 3.42847 34.478 3.64895 34.6176C3.86942 34.7573 4.11979 34.8316 4.37504 34.8333H30.625C30.8856 34.8339 31.1416 34.7586 31.3663 34.6154C31.591 34.4722 31.7762 34.2662 31.9028 34.0189C32.0293 33.7716 32.0925 33.492 32.0858 33.2092C32.0791 32.9264 32.0027 32.6507 31.8646 32.4108L24.573 19.7441ZM15.2396 31.6666H6.91254L14.5834 17.4166L18.8709 25.3333L17.048 28.5L15.2396 31.6666ZM18.6667 31.6666L20.8396 27.9141L21.875 26.2358L23.3334 23.5758L28 31.6666H18.6667Z" fill="black"/>
</svg>
