<svg width="32" height="32" viewBox="0 0 32 32" fill="none" xmlns="http://www.w3.org/2000/svg">
<g clip-path="url(#clip0)">
<path d="M32 16.099C32 7.20699 24.836 -0.00100708 16 -0.00100708C7.15997 0.00099292 -0.00402832 7.20699 -0.00402832 16.101C-0.00402832 24.135 5.84797 30.795 13.496 32.003V20.753H9.43597V16.101H13.5V12.551C13.5 8.51699 15.89 6.28899 19.544 6.28899C21.296 6.28899 23.126 6.60299 23.126 6.60299V10.563H21.108C19.122 10.563 18.502 11.805 18.502 13.079V16.099H22.938L22.23 20.751H18.5V32.001C26.148 30.793 32 24.133 32 16.099Z" fill="#112645"/>
</g>
<defs>
<clipPath id="clip0">
<rect width="32" height="32" fill="white"/>
</clipPath>
</defs>
</svg>
