<svg width="32" height="32" viewBox="0 0 32 32" fill="none" xmlns="http://www.w3.org/2000/svg">
<g clip-path="url(#clip0)">
<path d="M21.3333 16.0007V15.9993C21.3333 14.7655 20.9054 13.5698 20.1226 12.616C19.3399 11.6623 18.2506 11.0094 17.0405 10.7687C15.8304 10.528 14.5742 10.7143 13.486 11.2959C12.3978 11.8775 11.545 12.8184 11.0727 13.9583C10.6005 15.0982 10.5381 16.3666 10.8962 17.5473C11.2542 18.7281 12.0106 19.7481 13.0365 20.4337C14.0623 21.1193 15.2941 21.428 16.522 21.3072C17.75 21.1865 18.898 20.6437 19.7706 19.7713C20.2657 19.2927 20.6593 18.7192 20.9278 18.0851C21.1963 17.451 21.3342 16.7693 21.3333 16.0807L21.332 15.9967V16.0007H21.3333ZM24.2133 16.0007C24.2069 17.8919 23.5453 19.7226 22.3412 21.181C21.1371 22.6394 19.4647 23.6355 17.6089 23.9998C15.753 24.3641 13.8282 24.074 12.1621 23.179C10.4961 22.2839 9.1916 20.8392 8.47077 19.0907C7.74994 17.3421 7.65727 15.3978 8.20854 13.5887C8.75982 11.7795 9.92096 10.2173 11.4944 9.16782C13.0678 8.11837 14.9562 7.64656 16.8383 7.83269C18.7205 8.01881 20.4799 8.85137 21.8173 10.1887C22.5768 10.9256 23.1804 11.8077 23.5922 12.7826C24.004 13.7574 24.2157 14.8051 24.2146 15.8633L24.2133 16.0087V16.002V16.0007ZM26.4626 7.45933V7.462C26.4628 7.90621 26.3089 8.33673 26.0272 8.68019C25.7455 9.02366 25.3534 9.25883 24.9178 9.34562C24.4821 9.43241 24.0299 9.36546 23.638 9.15618C23.2462 8.94689 22.9391 8.60822 22.769 8.19787C22.5989 7.78752 22.5763 7.33088 22.7052 6.90577C22.834 6.48065 23.1062 6.11336 23.4755 5.86647C23.8448 5.61959 24.2883 5.50839 24.7304 5.55182C25.1724 5.59526 25.5858 5.79064 25.9 6.10467C26.2413 6.43933 26.4533 6.906 26.4533 7.422V7.46067V7.45933H26.4626ZM16.0093 2.87267L14.416 2.862C13.4506 2.85489 12.7177 2.85489 12.2173 2.862C11.7169 2.86911 11.0466 2.89 10.2066 2.92467C9.42663 2.95133 8.68663 3.02867 7.96263 3.15133L8.05996 3.138C7.4933 3.23133 6.99063 3.36467 6.5093 3.542L6.56663 3.52333C5.88664 3.79669 5.26826 4.20344 4.74798 4.71959C4.2277 5.23575 3.81605 5.85087 3.5373 6.52867L3.52396 6.56467C3.35282 7.03309 3.22604 7.51654 3.1453 8.00867L3.13863 8.058C3.02004 8.7586 2.94921 9.46646 2.92663 10.1767L2.9253 10.2047C2.89063 11.0456 2.86974 11.7158 2.86263 12.2153C2.85552 12.7149 2.85552 13.4478 2.86263 14.414C2.86974 15.3802 2.8733 15.9113 2.8733 16.0073C2.8733 16.1033 2.86974 16.6344 2.86263 17.6007C2.85552 18.5669 2.85552 19.2998 2.86263 19.7993C2.86974 20.2989 2.89063 20.9691 2.9253 21.81C2.95196 22.59 3.0293 23.33 3.15196 24.054L3.13863 23.9567C3.23196 24.5233 3.3653 25.026 3.54263 25.5073L3.52396 25.45C3.79731 26.13 4.20406 26.7484 4.72022 27.2687C5.23638 27.7889 5.8515 28.2006 6.5293 28.4793L6.5653 28.4927C6.9893 28.6513 7.49196 28.7847 8.0093 28.8713L8.05863 28.878C8.68396 28.9873 9.42396 29.0647 10.176 29.09L10.204 29.0913C11.0449 29.126 11.7151 29.1469 12.2146 29.154C12.7142 29.1611 13.4471 29.1611 14.4133 29.154L15.9973 29.122L17.5906 29.1327C18.556 29.1398 19.2889 29.1398 19.7893 29.1327C20.2897 29.1256 20.96 29.1047 21.8 29.07C22.58 29.0433 23.32 28.966 24.044 28.8433L23.9466 28.8567C24.5133 28.7633 25.016 28.63 25.4973 28.4527L25.44 28.4713C26.12 28.198 26.7383 27.7912 27.2586 27.2751C27.7789 26.7589 28.1905 26.1438 28.4693 25.466L28.4826 25.43C28.6413 25.006 28.7746 24.5033 28.8613 23.986L28.868 23.9367C28.9773 23.3113 29.0546 22.5713 29.08 21.8193L29.0813 21.7913C29.116 20.9504 29.1369 20.2802 29.144 19.7807C29.1511 19.2811 29.1511 18.5482 29.144 17.582C29.1369 16.6158 29.1333 16.0847 29.1333 15.9887C29.1333 15.8927 29.1369 15.3616 29.144 14.3953C29.1511 13.4291 29.1511 12.6962 29.144 12.1967C29.1369 11.6971 29.116 11.0269 29.0813 10.186C29.0546 9.406 28.9773 8.666 28.8546 7.942L28.868 8.03933C28.7834 7.51067 28.6481 6.99139 28.464 6.48867L28.4826 6.546C28.2093 5.86601 27.8025 5.24764 27.2864 4.72736C26.7702 4.20708 26.1551 3.79542 25.4773 3.51667L25.4413 3.50333C24.9729 3.33219 24.4894 3.20542 23.9973 3.12467L23.948 3.118C23.2478 2.99947 22.5404 2.92864 21.8306 2.906L21.8026 2.90467C20.9617 2.87 20.2915 2.84911 19.792 2.842C19.2924 2.83489 18.5595 2.83489 17.5933 2.842L16.0093 2.87267ZM32 16.0007C32 19.1811 31.9644 21.3824 31.8933 22.6047C31.9563 23.8433 31.7584 25.0814 31.3123 26.2386C30.8663 27.3959 30.1821 28.4465 29.304 29.3224C28.426 30.1984 27.3737 30.88 26.2153 31.3232C25.057 31.7665 23.8184 31.9614 22.58 31.8953L22.6013 31.8967C21.3791 31.9678 19.1777 32.0033 15.9973 32.0033C12.8169 32.0033 10.6155 31.9678 9.3933 31.8967C8.15465 31.9597 6.91659 31.7618 5.75933 31.3157C4.60207 30.8697 3.55144 30.1854 2.67553 29.3074C1.79961 28.4293 1.11795 27.377 0.674723 26.2187C0.231494 25.0604 0.0365861 23.8218 0.102629 22.5833L0.101296 22.6047C0.0301845 21.3824 -0.00537109 19.1811 -0.00537109 16.0007C-0.00537109 12.8202 0.0301845 10.6189 0.101296 9.39667C0.0382708 8.15803 0.236196 6.91996 0.682246 5.7627C1.1283 4.60544 1.81252 3.55482 2.69057 2.6789C3.56862 1.80298 4.62092 1.12132 5.77926 0.678095C6.9376 0.234866 8.17614 0.0399583 9.41463 0.106001L9.3933 0.104668C10.6155 0.0335567 12.8169 -0.0019989 15.9973 -0.0019989C19.1777 -0.0019989 21.3791 0.0335567 22.6013 0.104668C23.8399 0.041643 25.078 0.239569 26.2353 0.685618C27.3925 1.13167 28.4431 1.81589 29.3191 2.69394C30.195 3.572 30.8766 4.62429 31.3199 5.78263C31.7631 6.94097 31.958 8.17952 31.892 9.418L31.8933 9.39667C31.9644 10.618 32 12.8193 32 16.0007Z" fill="#112645"/>
</g>
<defs>
<clipPath id="clip0">
<rect width="32" height="32" fill="white"/>
</clipPath>
</defs>
</svg>
