<svg width="32" height="32" viewBox="0 0 32 32" fill="none" xmlns="http://www.w3.org/2000/svg">
<path d="M29.2332 3.58813C28.8888 3.29066 28.4695 3.09311 28.0209 3.01689C27.5722 2.94068 27.1112 2.9887 26.6879 3.15575L3.61824 12.2189C3.11563 12.4164 2.69047 12.7713 2.40638 13.2305C2.12229 13.6898 1.99454 14.2287 2.04225 14.7666C2.08995 15.3045 2.31054 15.8125 2.67102 16.2145C3.03149 16.6166 3.51247 16.8912 4.04199 16.9971L9.49999 18.0888V24.998C9.49958 25.4926 9.64595 25.9763 9.92059 26.3877C10.1952 26.799 10.5858 27.1197 11.0427 27.309C11.4997 27.4983 12.0026 27.5477 12.4877 27.451C12.9728 27.3543 13.4183 27.1158 13.7677 26.7658L16.679 23.8546L21.2487 27.8763C21.7017 28.2784 22.2863 28.5009 22.8921 28.5015C23.1554 28.5012 23.4171 28.4597 23.6676 28.3785C24.0808 28.2474 24.4524 28.0104 24.7453 27.6909C25.0382 27.3714 25.2423 26.9807 25.3371 26.5578L30.0389 6.04113C30.1412 5.59766 30.1202 5.13466 29.9782 4.70226C29.8362 4.26987 29.5786 3.88458 29.2332 3.58813ZM18.4891 9.6L10.6522 15.26L6.29874 14.3891L18.4891 9.6ZM12.5 23.7909V20.1771L14.4221 21.8688L12.5 23.7909ZM22.6005 25.0694L13.402 16.9746L26.6477 7.40838L22.6005 25.0694Z" fill="#112645"/>
</svg>
